		<svg
			width="176"
			height="42"
			viewBox="0 0 176 42"
			fill="none"
			xmlns="http://www.w3.org/2000/svg"
		>
			<path
				d="M26.2305 3.875L25.9961 7.68359C25.332 7.44922 24.5573 7.26693 23.6719 7.13672C22.7995 6.99349 21.901 6.88281 20.9766 6.80469C20.0521 6.72656 19.1471 6.67448 18.2617 6.64844C17.3763 6.6224 16.582 6.60938 15.8789 6.60938H15.3516L16.4844 32.0781H10.4883L11.1914 6.80469C10.2279 6.88281 9.23828 6.99349 8.22266 7.13672C7.22005 7.26693 6.25 7.4362 5.3125 7.64453C4.38802 7.83984 3.52865 8.07422 2.73438 8.34766C1.9401 8.62109 1.28255 8.93359 0.761719 9.28516L0.390625 4.03125L26.2305 3.875ZM39.1016 31.7656L39.5898 29.7148C39.1341 30.1185 38.6263 30.4831 38.0664 30.8086C37.5195 31.1341 36.9531 31.4141 36.3672 31.6484C35.7812 31.8698 35.1953 32.0391 34.6094 32.1562C34.0365 32.2865 33.5091 32.3516 33.0273 32.3516C32.181 32.3516 31.3086 32.2279 30.4102 31.9805C29.5117 31.7331 28.6979 31.362 27.9688 30.8672C27.2396 30.3724 26.6406 29.7539 26.1719 29.0117C25.7031 28.2695 25.4688 27.4102 25.4688 26.4336C25.4688 25.1576 25.6901 24.0508 26.1328 23.1133C26.5755 22.1758 27.1745 21.401 27.9297 20.7891C28.6979 20.1771 29.5964 19.7279 30.625 19.4414C31.6536 19.1419 32.7604 18.9922 33.9453 18.9922C34.5052 18.9922 35.0781 19.0378 35.6641 19.1289C36.25 19.2201 36.8229 19.3568 37.3828 19.5391C37.9427 19.7214 38.4766 19.9622 38.9844 20.2617C39.4922 20.5612 39.9479 20.9128 40.3516 21.3164C40.3125 20.6133 40.2148 19.8711 40.0586 19.0898C39.9154 18.3086 39.681 17.599 39.3555 16.9609C39.043 16.3099 38.6198 15.776 38.0859 15.3594C37.5521 14.9297 36.875 14.7148 36.0547 14.7148C34.8568 14.7148 33.8411 15.0273 33.0078 15.6523C32.1875 16.2643 31.6211 17.1562 31.3086 18.3281L26.2305 17.8008C26.543 16.9935 26.9857 16.2839 27.5586 15.6719C28.1315 15.0469 28.776 14.526 29.4922 14.1094C30.2214 13.6927 30.9961 13.3802 31.8164 13.1719C32.6367 12.9505 33.4635 12.8398 34.2969 12.8398C35.5729 12.8398 36.7122 13.0221 37.7148 13.3867C38.7305 13.7513 39.6224 14.2526 40.3906 14.8906C41.1589 15.5286 41.8099 16.2839 42.3438 17.1562C42.8776 18.0156 43.3138 18.9466 43.6523 19.9492C43.9909 20.9388 44.2383 21.9805 44.3945 23.0742C44.5508 24.1549 44.6289 25.2357 44.6289 26.3164C44.6289 27.2799 44.5768 28.237 44.4727 29.1875C44.3685 30.125 44.2188 31.0625 44.0234 32L39.1016 31.7656ZM40.1367 26.2383C40.1758 25.9388 40.2018 25.6458 40.2148 25.3594C40.2409 25.0729 40.2669 24.7799 40.293 24.4805C40.2279 23.8685 40.013 23.3281 39.6484 22.8594C39.2839 22.3776 38.8411 21.974 38.3203 21.6484C37.7995 21.3099 37.2331 21.056 36.6211 20.8867C36.0091 20.7174 35.4102 20.6328 34.8242 20.6328C34.1471 20.6328 33.5156 20.75 32.9297 20.9844C32.3438 21.2057 31.8359 21.5247 31.4062 21.9414C30.9766 22.3581 30.638 22.8529 30.3906 23.4258C30.1432 23.9987 30.0195 24.6302 30.0195 25.3203C30.0195 26.0234 30.1237 26.668 30.332 27.2539C30.5534 27.8268 30.8594 28.3281 31.25 28.7578C31.6406 29.1745 32.1159 29.5 32.6758 29.7344C33.2487 29.9688 33.8867 30.0859 34.5898 30.0859C35.2148 30.0859 35.8268 29.9948 36.4258 29.8125C37.0247 29.6302 37.5716 29.3763 38.0664 29.0508C38.5742 28.7122 39.0039 28.3086 39.3555 27.8398C39.7201 27.3581 39.9805 26.8242 40.1367 26.2383ZM54.9219 8.95312C54.9219 9.42188 54.8307 9.86458 54.6484 10.2812C54.4792 10.6979 54.2383 11.0625 53.9258 11.375C53.6133 11.6875 53.2487 11.9349 52.832 12.1172C52.4154 12.2995 51.9661 12.3906 51.4844 12.3906C51.0026 12.3906 50.5469 12.2995 50.1172 12.1172C49.7005 11.9349 49.3359 11.6875 49.0234 11.375C48.7109 11.0625 48.4635 10.6979 48.2812 10.2812C48.099 9.86458 48.0078 9.42188 48.0078 8.95312C48.0078 8.47135 48.099 8.02214 48.2812 7.60547C48.4635 7.17578 48.7109 6.80469 49.0234 6.49219C49.3359 6.17969 49.7005 5.93229 50.1172 5.75C50.5469 5.56771 51.0026 5.47656 51.4844 5.47656C51.9661 5.47656 52.4154 5.56771 52.832 5.75C53.2487 5.93229 53.6133 6.17969 53.9258 6.49219C54.2383 6.80469 54.4792 7.17578 54.6484 7.60547C54.8307 8.02214 54.9219 8.47135 54.9219 8.95312ZM54.2578 14.3633L52.7734 33.1523L49.0039 32.7617L48.7695 14.0703L54.2578 14.3633ZM63.6523 0.710938L62.6953 32.0781L58.9648 32.3906L58.0078 1.23828L63.6523 0.710938ZM87.9492 22.8789C87.9492 24.4544 87.6367 25.8542 87.0117 27.0781C86.3997 28.2891 85.5794 29.3177 84.5508 30.1641C83.5352 30.9974 82.3568 31.6289 81.0156 32.0586C79.6745 32.5013 78.2812 32.7227 76.8359 32.7227C75.4036 32.7227 74.082 32.4753 72.8711 31.9805C71.6732 31.4857 70.638 30.8021 69.7656 29.9297C68.8932 29.0443 68.2096 28.0026 67.7148 26.8047C67.2331 25.5938 66.9922 24.2721 66.9922 22.8398C66.9922 21.4336 67.2786 20.1185 67.8516 18.8945C68.4375 17.6706 69.2122 16.6029 70.1758 15.6914C71.1523 14.7669 72.2721 14.0443 73.5352 13.5234C74.7982 12.9896 76.1198 12.7227 77.5 12.7227C78.9974 12.7227 80.3841 12.9701 81.6602 13.4648C82.9362 13.9596 84.0365 14.6562 84.9609 15.5547C85.8984 16.4531 86.6276 17.5273 87.1484 18.7773C87.6823 20.0143 87.9492 21.3815 87.9492 22.8789ZM83.0273 22.6836C83.0273 22.0977 82.9883 21.4922 82.9102 20.8672C82.832 20.2292 82.7018 19.6107 82.5195 19.0117C82.3503 18.3997 82.1224 17.8268 81.8359 17.293C81.5625 16.7461 81.2174 16.2708 80.8008 15.8672C80.3841 15.4505 79.8958 15.125 79.3359 14.8906C78.776 14.6432 78.138 14.5195 77.4219 14.5195C76.3281 14.5195 75.4232 14.7865 74.707 15.3203C73.9909 15.8411 73.4245 16.5117 73.0078 17.332C72.6042 18.1393 72.3177 19.0312 72.1484 20.0078C71.9922 20.9844 71.9141 21.9154 71.9141 22.8008C71.9141 23.3867 71.9466 23.9987 72.0117 24.6367C72.0898 25.2617 72.2135 25.8802 72.3828 26.4922C72.5521 27.1042 72.7734 27.6901 73.0469 28.25C73.3203 28.7969 73.6589 29.2852 74.0625 29.7148C74.4792 30.1315 74.9609 30.4635 75.5078 30.7109C76.0677 30.9583 76.7057 31.082 77.4219 31.082C78.151 31.082 78.7956 30.9583 79.3555 30.7109C79.9154 30.4505 80.3971 30.112 80.8008 29.6953C81.2174 29.2656 81.569 28.7708 81.8555 28.2109C82.1419 27.638 82.3698 27.0456 82.5391 26.4336C82.7083 25.8086 82.832 25.1771 82.9102 24.5391C82.9883 23.888 83.0273 23.2695 83.0273 22.6836ZM97.0117 12.957L96.7383 18.0742C97.0768 17.4492 97.474 16.8372 97.9297 16.2383C98.3854 15.6263 98.8802 15.0599 99.4141 14.5391C99.9609 14.0052 100.534 13.5234 101.133 13.0938C101.745 12.651 102.37 12.2865 103.008 12V18.5234C102.734 18.224 102.422 18.0091 102.07 17.8789C101.719 17.7487 101.341 17.6836 100.938 17.6836C100.339 17.6836 99.8047 17.7812 99.3359 17.9766C98.8672 18.1719 98.457 18.4388 98.1055 18.7773C97.7539 19.1029 97.4544 19.4935 97.207 19.9492C96.9596 20.3919 96.7513 20.8607 96.582 21.3555L96.0156 31.8828L92.5781 32.1172L91.4453 13.2891L97.0117 12.957ZM120.391 2.95703C122.161 2.95703 123.717 3.26953 125.059 3.89453C126.4 4.50651 127.559 5.33984 128.535 6.39453C129.512 7.4362 130.326 8.64714 130.977 10.0273C131.641 11.3945 132.168 12.8333 132.559 14.3438C132.949 15.8411 133.223 17.3646 133.379 18.9141C133.548 20.4505 133.633 21.9089 133.633 23.2891C133.633 24.5 133.555 25.6589 133.398 26.7656C133.242 27.8724 133.073 28.862 132.891 29.7344C132.669 30.75 132.422 31.707 132.148 32.6055L126.23 31.5508C126.608 30.6523 126.96 29.6302 127.285 28.4844C127.624 27.3385 127.923 26.1667 128.184 24.9688C126.608 24.8255 125.033 24.7344 123.457 24.6953C121.895 24.6562 120.339 24.6367 118.789 24.6367C117.578 24.6367 116.367 24.6432 115.156 24.6562C113.945 24.6693 112.728 24.7148 111.504 24.793C111.764 25.8997 112.07 27.0065 112.422 28.1133C112.773 29.2201 113.177 30.3529 113.633 31.5117L107.461 32.6445C107.174 32.0456 106.914 31.349 106.68 30.5547C106.484 29.8776 106.302 29.0573 106.133 28.0938C105.977 27.1172 105.898 26.0169 105.898 24.793C105.898 23.1914 105.964 21.5443 106.094 19.8516C106.237 18.1458 106.491 16.4857 106.855 14.8711C107.233 13.2565 107.754 11.7266 108.418 10.2812C109.095 8.83594 109.967 7.57292 111.035 6.49219C112.116 5.39844 113.418 4.53906 114.941 3.91406C116.478 3.27604 118.294 2.95703 120.391 2.95703ZM110.664 16.8438C110.664 17.9245 110.703 18.9727 110.781 19.9883C110.859 20.9909 110.983 21.9805 111.152 22.957C112.454 23.0352 113.75 23.0807 115.039 23.0938C116.341 23.1068 117.656 23.1133 118.984 23.1133C120.56 23.1133 122.142 23.1068 123.73 23.0938C125.332 23.0677 126.94 22.9961 128.555 22.8789C128.789 21.4336 128.906 20.0729 128.906 18.7969C128.906 17.8724 128.835 16.8893 128.691 15.8477C128.561 14.806 128.346 13.7773 128.047 12.7617C127.747 11.7331 127.357 10.75 126.875 9.8125C126.406 8.875 125.827 8.05469 125.137 7.35156C124.447 6.63542 123.646 6.06901 122.734 5.65234C121.836 5.22266 120.814 5.00781 119.668 5.00781C118.613 5.00781 117.663 5.17708 116.816 5.51562C115.97 5.85417 115.208 6.31641 114.531 6.90234C113.867 7.48828 113.288 8.17188 112.793 8.95312C112.311 9.72135 111.914 10.5482 111.602 11.4336C111.289 12.306 111.055 13.2044 110.898 14.1289C110.742 15.0534 110.664 15.9583 110.664 16.8438ZM143.184 0.710938L142.227 32.0781L138.496 32.3906L137.539 1.23828L143.184 0.710938ZM152.637 0.710938L151.68 32.0781L147.949 32.3906L146.992 1.23828L152.637 0.710938ZM174.922 13.875C174.961 14.3438 174.993 14.8581 175.02 15.418C175.059 15.9779 175.085 16.5443 175.098 17.1172C175.124 17.6771 175.143 18.237 175.156 18.7969C175.169 19.3438 175.176 19.8516 175.176 20.3203C175.176 21.1797 175.156 22.1432 175.117 23.2109C175.078 24.2656 175 25.3789 174.883 26.5508C174.766 27.7096 174.596 28.888 174.375 30.0859C174.154 31.2839 173.861 32.4427 173.496 33.5625C173.145 34.6823 172.708 35.737 172.188 36.7266C171.667 37.7161 171.048 38.5755 170.332 39.3047C169.616 40.0469 168.783 40.6263 167.832 41.043C166.895 41.4727 165.82 41.6875 164.609 41.6875C163.698 41.6875 162.826 41.5443 161.992 41.2578C161.172 40.9714 160.417 40.5677 159.727 40.0469C159.049 39.5391 158.451 38.9271 157.93 38.2109C157.422 37.4948 157.025 36.707 156.738 35.8477L162.812 34.2852C162.786 34.4414 162.773 34.6042 162.773 34.7734C162.773 34.9557 162.773 35.138 162.773 35.3203C162.773 35.737 162.806 36.2122 162.871 36.7461C162.936 37.2799 163.066 37.7812 163.262 38.25C163.457 38.7188 163.737 39.1159 164.102 39.4414C164.466 39.7669 164.941 39.9297 165.527 39.9297C166.139 39.9297 166.68 39.7083 167.148 39.2656C167.617 38.8229 168.021 38.25 168.359 37.5469C168.711 36.8438 168.997 36.0495 169.219 35.1641C169.453 34.2786 169.642 33.3867 169.785 32.4883C169.941 31.6029 170.052 30.7565 170.117 29.9492C170.182 29.1289 170.228 28.4388 170.254 27.8789C169.941 28.582 169.557 29.2331 169.102 29.832C168.659 30.431 168.145 30.9518 167.559 31.3945C166.986 31.8242 166.348 32.1562 165.645 32.3906C164.941 32.638 164.173 32.7617 163.34 32.7617C162.038 32.7617 160.931 32.4688 160.02 31.8828C159.108 31.2969 158.366 30.5286 157.793 29.5781C157.233 28.6146 156.823 27.5208 156.562 26.2969C156.302 25.0599 156.172 23.8034 156.172 22.5273C156.172 21.069 156.289 19.7539 156.523 18.582C156.758 17.3971 157.025 16.375 157.324 15.5156C157.663 14.513 158.053 13.6211 158.496 12.8398L163.691 14.1289C162.611 16.043 161.836 17.8138 161.367 19.4414C160.911 21.056 160.684 22.6315 160.684 24.168C160.684 24.806 160.762 25.4831 160.918 26.1992C161.087 26.9154 161.348 27.5794 161.699 28.1914C162.064 28.7904 162.526 29.2917 163.086 29.6953C163.646 30.0859 164.329 30.2812 165.137 30.2812C165.84 30.2812 166.458 30.0859 166.992 29.6953C167.539 29.2917 168.014 28.7773 168.418 28.1523C168.835 27.5143 169.186 26.8112 169.473 26.043C169.759 25.2617 169.993 24.487 170.176 23.7188C170.176 22.9766 170.169 22.1888 170.156 21.3555C170.156 20.5091 170.143 19.6628 170.117 18.8164C170.091 17.957 170.039 17.1237 169.961 16.3164C169.896 15.4961 169.805 14.7474 169.688 14.0703L174.922 13.875Z"
				fill="url(#paint0_linear_2762_21265)"
			/>
			<defs>
				<linearGradient
					id="paint0_linear_2762_21265"
					x1="184.602"
					y1="-57.1473"
					x2="92.3584"
					y2="129.051"
					gradientUnits="userSpaceOnUse"
				>
					<stop offset="0.555" stopColor="#661E8D" />
					<stop offset="1" stopColor="#E0C1EE" />
				</linearGradient>
			</defs>
		</svg>
